<svg xmlns="http://www.w3.org/2000/svg" width="1330" height="1183" viewBox="0 0 1330 1183" version="1.1">
	<path d="M 655.365 10.089 C 650.014 11.640, 642.690 17.286, 639.676 22.184 C 637.542 25.652, 636.570 28.863, 635.932 34.560 C 635.457 38.791, 635.078 76.446, 635.088 118.239 C 635.099 160.032, 634.848 194.485, 634.531 194.803 C 634.214 195.120, 628.677 195.977, 622.227 196.708 C 585.676 200.850, 538.525 214.446, 503.763 230.868 C 472.128 245.812, 446.074 262.319, 418.647 284.793 L 410.793 291.229 349.814 229.664 C 304.987 184.405, 287.645 167.522, 284.341 165.923 C 281.257 164.430, 277.911 163.737, 273.674 163.712 C 262.711 163.649, 253.231 169.548, 249.223 178.927 C 247.315 183.392, 247.155 193.223, 248.905 198.500 C 249.981 201.749, 261.870 214.165, 312.216 264.620 L 374.202 326.739 368.990 333.120 C 348.487 358.221, 343.366 365.194, 332.053 383.417 C 323.871 396.598, 310.696 421.653, 305.926 433.105 C 290.233 470.779, 280.442 506.761, 276.468 541.360 C 275.575 549.137, 274.649 556.501, 274.410 557.725 L 273.975 559.949 183.237 560.225 C 98.341 560.482, 92.243 560.616, 88.500 562.301 C 83.233 564.672, 78.198 569.546, 75.900 574.500 C 73.616 579.422, 73.377 590.573, 75.449 595.532 C 77.892 601.380, 81.924 605.783, 87.278 608.451 L 92.393 611 183.129 611 C 268.692 611, 273.893 611.100, 274.352 612.750 C 274.620 613.712, 275.138 617.650, 275.503 621.500 C 277.161 638.975, 281.515 663.007, 286.101 680 C 292.463 703.575, 303.523 731.458, 315.253 753.500 C 330.383 781.930, 342.589 799.720, 363.827 824.299 L 372.294 834.097 327.857 878.799 C 255.568 951.517, 251.883 955.321, 249.674 959.500 C 246.912 964.726, 246.729 975.840, 249.319 981.108 C 251.650 985.849, 256.423 990.648, 261.447 993.301 C 266.784 996.118, 277.885 996.287, 283 993.628 C 284.925 992.627, 313.950 964.408, 347.500 930.920 L 408.500 870.033 422.008 880.766 C 429.437 886.670, 440.272 894.732, 446.085 898.683 C 465.994 912.213, 490.773 925.769, 512.396 934.961 C 545.786 949.155, 586.668 959.560, 623.250 963.176 L 635 964.337 635.049 1038.918 C 635.105 1123.287, 635.298 1133.817, 636.892 1139.657 C 638.741 1146.430, 643.857 1152.971, 650 1156.416 C 655.072 1159.260, 656.240 1159.500, 665 1159.497 C 672.835 1159.495, 675.201 1159.115, 678.500 1157.332 C 683.242 1154.769, 689.047 1148.878, 691.640 1144 C 693.406 1140.676, 693.514 1136.094, 693.771 1053.029 C 693.921 1004.919, 694.399 965.201, 694.835 964.765 C 695.270 964.330, 699.648 963.512, 704.563 962.947 C 733.577 959.618, 763.916 952.793, 789 943.954 C 808.654 937.029, 816.089 933.941, 833.185 925.603 C 860.058 912.496, 885.304 896.307, 909.172 876.875 C 914.492 872.544, 919.264 869, 919.777 869 C 920.291 869, 930.113 878.637, 941.605 890.415 C 953.097 902.193, 980.999 930.479, 1003.609 953.273 C 1039.971 989.930, 1045.274 994.905, 1049.537 996.358 C 1058.862 999.535, 1066.880 997.995, 1073.689 991.719 C 1080.003 985.899, 1082.285 980.954, 1082.327 973.003 C 1082.352 968.112, 1081.785 965.385, 1080.040 962 C 1078.483 958.981, 1061.882 941.548, 1029.609 909.042 C 1003.149 882.391, 975.988 855.185, 969.252 848.585 C 962.515 841.985, 956.753 835.798, 956.448 834.836 C 956.067 833.634, 958.147 830.486, 963.084 824.793 C 984.774 799.782, 1002.911 772.156, 1018.370 740.581 C 1026.106 724.779, 1034.774 702.425, 1039.397 686.348 C 1045.351 665.643, 1050.639 638.211, 1052.517 618.280 L 1053.197 611.060 1144.848 610.780 C 1226.931 610.529, 1236.873 610.330, 1240.073 608.875 C 1245.771 606.284, 1250.571 601.424, 1252.992 595.797 C 1254.847 591.486, 1255.155 589.317, 1254.769 583.302 C 1254.397 577.512, 1253.703 575.054, 1251.374 571.288 C 1249.596 568.411, 1246.527 565.365, 1243.552 563.526 L 1238.658 560.500 1145.579 560 L 1052.500 559.500 1051.790 552 C 1049.585 528.713, 1043.023 495.876, 1036.385 474.912 C 1023.573 434.451, 1006.018 398.216, 982.892 364.500 C 976.047 354.520, 970.735 347.552, 959.617 333.963 L 953.734 326.773 1012.826 267.636 C 1058.081 222.348, 1072.392 207.446, 1073.937 204 C 1075.231 201.117, 1075.964 197.325, 1075.978 193.446 C 1076.021 181.738, 1069.075 172.822, 1057.229 169.378 C 1051.301 167.655, 1046.980 168.057, 1040.500 170.934 C 1037.681 172.186, 1019.011 190.203, 977.273 231.952 L 918.046 291.193 911.273 285.228 C 895.332 271.191, 866.551 251.687, 843.208 239.103 C 829.976 231.970, 824.831 229.486, 811.500 223.795 C 782.288 211.325, 742.438 200.331, 714.387 197.003 C 708.949 196.358, 702.250 195.527, 699.500 195.156 L 694.500 194.482 694.284 124.491 C 694.166 85.996, 693.938 48.650, 693.778 41.500 C 693.505 29.297, 693.310 28.178, 690.582 23.246 C 687.439 17.560, 683.437 14.008, 676.756 10.976 C 673.776 9.623, 670.401 9.064, 665.500 9.112 C 661.650 9.150, 657.089 9.589, 655.365 10.089 M 635.011 246.542 C 598.183 250.756, 568.165 258.514, 535.394 272.290 C 500.264 287.057, 465.429 309.973, 435.516 337.994 C 421.735 350.902, 405.625 368.009, 399.724 376 C 397.490 379.025, 393.964 383.557, 391.888 386.071 C 384.762 394.700, 369.855 419.515, 360.991 437.500 C 352.267 455.203, 345.489 472.435, 340.445 489.730 C 335.298 507.381, 330.094 534.487, 327.817 555.500 C 326.066 571.656, 326.375 606.785, 328.409 623 C 330.487 639.555, 335.243 663.161, 339.163 676.372 C 352.174 720.228, 381.251 767.886, 419.094 807.383 C 440.492 829.717, 468.113 851.870, 493 866.658 C 514.240 879.280, 531.823 887.477, 555.751 895.912 C 595.143 909.799, 637.590 915.963, 680 913.955 C 726.297 911.763, 768.305 901.059, 809.500 880.956 C 818.300 876.662, 829.325 870.821, 834 867.977 C 866.690 848.089, 893.330 825.925, 920.559 795.963 C 927.651 788.160, 947.808 761.338, 953.975 751.500 C 965.647 732.879, 975.485 713.393, 983.366 693.285 C 990.896 674.074, 998.579 641.430, 1001.086 618 C 1002.684 603.066, 1002.736 566.661, 1001.180 552 C 996.630 509.120, 985.754 471.205, 967.905 436 C 964.141 428.575, 958.910 418.900, 956.280 414.500 C 930.304 371.028, 890.829 329.759, 848 301.297 C 826.035 286.700, 809.946 278.275, 783.531 267.536 C 762.473 258.976, 735.382 251.771, 710 247.982 C 691.077 245.158, 653.432 244.435, 635.011 246.542 M 645.500 278.699 C 642.017 280.579, 640.756 282.019, 637.792 287.500 C 635.690 291.388, 635.623 292.616, 635.404 331.500 C 635.280 353.500, 635.139 398.306, 635.090 431.068 L 635 490.636 626.449 493.962 L 617.898 497.288 606.343 485.894 C 599.987 479.627, 583.698 463.265, 570.144 449.533 C 556.590 435.801, 529.487 408.516, 509.915 388.899 C 482.685 361.606, 473.586 353.068, 471.165 352.536 C 463.752 350.908, 456.385 354.704, 446.249 365.375 C 438.760 373.259, 436.285 378.467, 437.468 383.852 C 438.233 387.339, 448.199 397.677, 521.243 470.758 C 579.352 528.896, 581.422 531.095, 580.069 533.258 C 577.074 538.050, 571.936 548.829, 570.166 554.037 L 568.309 559.500 460.905 560.011 C 401.832 560.292, 353.399 560.630, 353.276 560.761 C 353.152 560.893, 352.365 562.328, 351.526 563.950 C 350.308 566.305, 350 570.916, 350 586.776 C 350 606.259, 350.046 606.694, 352.314 608.826 L 354.629 611 461.735 611 L 568.841 611 569.537 614.250 C 569.920 616.038, 571.839 621.032, 573.802 625.350 L 577.369 633.199 508.199 701.850 C 468.197 741.551, 438.601 771.687, 438.015 773.315 C 435.256 780.969, 438.669 789.460, 448.286 798.870 C 453.411 803.885, 455.860 805.516, 459.797 806.537 C 466.113 808.176, 471.200 807.119, 475.242 803.330 C 476.903 801.774, 505.315 773.555, 538.381 740.621 C 571.446 707.688, 601.502 677.836, 605.171 674.283 L 611.843 667.824 614.671 669.902 C 616.227 671.046, 621.325 673.542, 626 675.451 L 634.500 678.920 635 777.210 C 635.447 865.057, 635.672 875.872, 637.121 879 C 639.051 883.166, 642.449 886.469, 646.313 887.933 C 650.641 889.572, 670.676 890.339, 677.855 889.139 C 681.844 888.473, 685.440 887.139, 687.516 885.556 C 694.312 880.372, 694.019 885.084, 694.272 777.097 L 694.500 679.695 701 677.029 C 704.575 675.563, 710.149 673.095, 713.386 671.545 L 719.273 668.726 787.471 737.030 C 824.981 774.597, 856.757 805.741, 858.085 806.239 C 862.628 807.943, 868.830 807.290, 873.370 804.629 C 879.346 801.127, 888.440 791.033, 890.516 785.598 C 894.159 776.058, 898.275 780.929, 821.569 704 L 752.271 634.500 754.605 630.500 C 755.888 628.300, 758.155 623.013, 759.642 618.750 L 762.346 611 772.423 610.899 C 777.965 610.843, 825.636 610.719, 878.358 610.624 L 974.217 610.451 976.108 608.115 C 977.747 606.091, 978.028 603.817, 978.206 591.139 C 978.488 571.149, 978.097 564.890, 976.400 562.250 L 974.954 560 870.727 559.986 C 813.402 559.979, 765.548 559.717, 764.384 559.405 C 762.978 559.027, 761.854 557.458, 761.037 554.730 C 760.361 552.471, 757.363 545.899, 754.375 540.125 L 748.943 529.627 796.722 482.033 C 823 455.857, 855.188 423.582, 868.250 410.313 C 891.913 386.274, 892 386.170, 891.994 381.843 C 891.990 379.454, 891.323 376.226, 890.511 374.669 C 889.699 373.111, 886.067 368.522, 882.440 364.470 C 875.761 357.007, 868.065 352, 863.272 352 C 861.987 352, 859.379 352.651, 857.475 353.446 C 855.228 354.385, 829.095 379.830, 782.962 425.996 L 711.909 497.101 705.204 494.506 C 701.517 493.079, 697.487 491.491, 696.250 490.977 L 694 490.043 694 390.489 C 694 308.180, 693.762 290.378, 692.623 287.718 C 690.958 283.826, 686.516 279.511, 682.685 278.064 C 681.113 277.470, 672.943 277.018, 664.185 277.040 C 651.688 277.072, 647.890 277.409, 645.500 278.699 M 652.263 534.514 C 643.271 536.468, 634.459 541.496, 626.921 548.973 C 612.448 563.331, 607.641 584.145, 614.532 602.623 C 615.788 605.991, 617.997 610.619, 619.442 612.907 C 623.849 619.890, 633.026 628.261, 640.059 631.716 C 647.723 635.480, 657.455 637.970, 664.500 637.970 C 677.209 637.970, 692.623 631.369, 702.151 621.846 C 709.628 614.373, 715.577 602.436, 717.111 591.828 C 718.025 585.506, 717.939 582.779, 716.624 576.328 C 715.746 572.023, 713.638 565.677, 711.940 562.227 C 705.178 548.489, 690.586 537.355, 675.582 534.484 C 666.263 532.701, 660.573 532.709, 652.263 534.514" stroke="none" fill="black" fill-rule="evenodd"/>
</svg>